<?xml version="1.0" standalone="no"?>
<!DOCTYPE svg PUBLIC "-//W3C//DTD SVG 20010904//EN"
 "http://www.w3.org/TR/2001/REC-SVG-20010904/DTD/svg10.dtd">
<svg version="1.0" xmlns="http://www.w3.org/2000/svg"
 width="450.000000pt" height="470.000000pt" viewBox="0 0 450.000000 470.000000"
 preserveAspectRatio="xMidYMid meet">
<metadata>
Created by potrace 1.11, written by Peter Selinger 2001-2013
</metadata>
<g transform="translate(0.000000,470.000000) scale(0.100000,-0.100000)"
fill="#000000" stroke="none">
<path d="M490 4020 c-52 -3 -83 -7 -67 -8 l27 -2 0 -219 0 -220 -27 -4 c-16
-2 35 -4 112 -4 77 0 128 2 113 4 -28 4 -28 4 -28 88 l0 84 35 -15 c74 -31
142 -4 175 69 63 137 -45 279 -172 226 -24 -10 -33 -10 -36 -1 -2 7 -11 11
-20 10 -9 -1 -60 -5 -112 -8z"/>
<path d="M983 4013 c-50 -17 -89 -59 -103 -111 -35 -130 118 -227 285 -181
126 34 165 162 76 250 -58 58 -165 76 -258 42z m122 -143 c0 -134 -1 -145 -19
-148 -30 -6 -36 16 -36 145 0 138 4 155 34 151 20 -3 21 -8 21 -148z"/>
<path d="M1433 4019 c-46 -13 -99 -68 -112 -115 -28 -103 60 -194 189 -194 51
0 128 29 151 56 24 29 -1 26 -35 -4 -20 -17 -52 -34 -72 -38 -49 -9 -64 11
-64 88 l0 58 96 0 c84 0 95 2 90 16 -3 9 -6 22 -6 29 0 23 -62 87 -97 101 -36
16 -92 17 -140 3z"/>
<path d="M1780 4020 c-52 -3 -83 -7 -67 -8 l27 -2 0 -219 0 -220 -27 -4 c-16
-2 35 -4 112 -4 77 0 128 2 113 4 -28 4 -28 4 -28 88 l0 84 35 -15 c74 -31
142 -4 175 69 63 137 -45 279 -172 226 -24 -10 -33 -10 -36 -1 -2 7 -11 11
-20 10 -9 -1 -60 -5 -112 -8z"/>
<path d="M1354 3548 c-9 -30 -35 -62 -54 -67 -8 -2 -37 -8 -65 -13 -103 -19
-175 -73 -175 -131 0 -51 -11 -77 -31 -77 -24 0 -78 -53 -90 -89 -9 -27 -2
-56 29 -113 2 -3 -6 -4 -17 -1 -58 15 -155 -65 -185 -154 -20 -59 -20 -135 -1
-173 32 -62 37 -62 491 -62 404 0 413 0 458 21 103 51 108 182 11 290 -20 21
-48 44 -64 51 -26 10 -29 16 -24 45 7 43 -21 101 -62 128 -23 15 -32 28 -32
48 0 35 -48 99 -74 99 -11 0 -29 5 -40 10 -18 10 -18 13 -4 40 23 44 18 82
-16 128 -35 48 -45 51 -55 20z m-262 -637 c44 -14 56 -38 30 -64 -24 -23 -82
-31 -164 -23 -77 9 -90 16 -90 50 0 50 18 59 107 53 44 -3 96 -10 117 -16z"/>
<path d="M2482 3337 c-2 -73 -38 -255 -63 -324 -87 -243 -259 -460 -477 -606
-118 -79 -333 -166 -462 -187 -52 -9 -51 -9 21 -5 85 5 202 39 317 91 229 104
436 305 552 534 77 152 125 355 118 490 l-4 65 -2 -58z"/>
</g>
</svg>
